<svg id="visual" viewBox="0 0 900 600" width="900" height="600" xmlns="http://www.w3.org/2000/svg" xmlns:xlink="http://www.w3.org/1999/xlink" version="1.1"><rect x="0" y="0" width="900" height="600" fill="#212529"></rect><defs><linearGradient id="grad1_0" x1="33.3%" y1="100%" x2="100%" y2="0%"><stop offset="20%" stop-color="#ff1f1f" stop-opacity="1"></stop><stop offset="80%" stop-color="#ff1f1f" stop-opacity="1"></stop></linearGradient></defs><defs><linearGradient id="grad1_1" x1="33.3%" y1="100%" x2="100%" y2="0%"><stop offset="20%" stop-color="#ff1f1f" stop-opacity="1"></stop><stop offset="80%" stop-color="#ea004f" stop-opacity="1"></stop></linearGradient></defs><defs><linearGradient id="grad1_2" x1="33.3%" y1="100%" x2="100%" y2="0%"><stop offset="20%" stop-color="#c5066e" stop-opacity="1"></stop><stop offset="80%" stop-color="#ea004f" stop-opacity="1"></stop></linearGradient></defs><defs><linearGradient id="grad1_3" x1="33.3%" y1="100%" x2="100%" y2="0%"><stop offset="20%" stop-color="#c5066e" stop-opacity="1"></stop><stop offset="80%" stop-color="#962c7c" stop-opacity="1"></stop></linearGradient></defs><defs><linearGradient id="grad1_4" x1="33.3%" y1="100%" x2="100%" y2="0%"><stop offset="20%" stop-color="#643879" stop-opacity="1"></stop><stop offset="80%" stop-color="#962c7c" stop-opacity="1"></stop></linearGradient></defs><defs><linearGradient id="grad1_5" x1="33.3%" y1="100%" x2="100%" y2="0%"><stop offset="20%" stop-color="#643879" stop-opacity="1"></stop><stop offset="80%" stop-color="#3a3866" stop-opacity="1"></stop></linearGradient></defs><defs><linearGradient id="grad1_6" x1="33.3%" y1="100%" x2="100%" y2="0%"><stop offset="20%" stop-color="#243149" stop-opacity="1"></stop><stop offset="80%" stop-color="#3a3866" stop-opacity="1"></stop></linearGradient></defs><defs><linearGradient id="grad1_7" x1="33.3%" y1="100%" x2="100%" y2="0%"><stop offset="20%" stop-color="#243149" stop-opacity="1"></stop><stop offset="80%" stop-color="#212529" stop-opacity="1"></stop></linearGradient></defs><defs><linearGradient id="grad2_0" x1="0%" y1="100%" x2="66.7%" y2="0%"><stop offset="20%" stop-color="#ff1f1f" stop-opacity="1"></stop><stop offset="80%" stop-color="#ff1f1f" stop-opacity="1"></stop></linearGradient></defs><defs><linearGradient id="grad2_1" x1="0%" y1="100%" x2="66.7%" y2="0%"><stop offset="20%" stop-color="#ea004f" stop-opacity="1"></stop><stop offset="80%" stop-color="#ff1f1f" stop-opacity="1"></stop></linearGradient></defs><defs><linearGradient id="grad2_2" x1="0%" y1="100%" x2="66.7%" y2="0%"><stop offset="20%" stop-color="#ea004f" stop-opacity="1"></stop><stop offset="80%" stop-color="#c5066e" stop-opacity="1"></stop></linearGradient></defs><defs><linearGradient id="grad2_3" x1="0%" y1="100%" x2="66.7%" y2="0%"><stop offset="20%" stop-color="#962c7c" stop-opacity="1"></stop><stop offset="80%" stop-color="#c5066e" stop-opacity="1"></stop></linearGradient></defs><defs><linearGradient id="grad2_4" x1="0%" y1="100%" x2="66.7%" y2="0%"><stop offset="20%" stop-color="#962c7c" stop-opacity="1"></stop><stop offset="80%" stop-color="#643879" stop-opacity="1"></stop></linearGradient></defs><defs><linearGradient id="grad2_5" x1="0%" y1="100%" x2="66.7%" y2="0%"><stop offset="20%" stop-color="#3a3866" stop-opacity="1"></stop><stop offset="80%" stop-color="#643879" stop-opacity="1"></stop></linearGradient></defs><defs><linearGradient id="grad2_6" x1="0%" y1="100%" x2="66.7%" y2="0%"><stop offset="20%" stop-color="#3a3866" stop-opacity="1"></stop><stop offset="80%" stop-color="#243149" stop-opacity="1"></stop></linearGradient></defs><defs><linearGradient id="grad2_7" x1="0%" y1="100%" x2="66.7%" y2="0%"><stop offset="20%" stop-color="#212529" stop-opacity="1"></stop><stop offset="80%" stop-color="#243149" stop-opacity="1"></stop></linearGradient></defs><g transform="translate(900, 600)"><path d="M-432.7 0C-430.9 -38.2 -429.1 -76.4 -417.9 -112C-406.8 -147.5 -386.3 -180.4 -364.6 -210.5C-342.9 -240.6 -320.1 -267.9 -295.6 -295.6C-271 -323.2 -244.7 -351.3 -213 -368.9C-181.3 -386.6 -144.3 -393.9 -107.9 -402.8C-71.5 -411.7 -35.8 -422.2 0 -432.7L0 0Z" fill="#212b39"></path><path d="M-378.6 0C-377 -33.4 -375.4 -66.9 -365.7 -98C-355.9 -129.1 -338 -157.9 -319 -184.2C-300.1 -210.5 -280.1 -234.4 -258.6 -258.6C-237.1 -282.8 -214.1 -307.4 -186.4 -322.8C-158.7 -338.3 -126.3 -344.7 -94.4 -352.4C-62.6 -360.2 -31.3 -369.4 0 -378.6L0 0Z" fill="#2c3558"></path><path d="M-324.5 0C-323.2 -28.7 -321.8 -57.3 -313.4 -84C-305.1 -110.6 -289.7 -135.3 -273.4 -157.9C-257.2 -180.4 -240.1 -200.9 -221.7 -221.7C-203.3 -242.4 -183.5 -263.4 -159.8 -276.7C-136 -289.9 -108.2 -295.4 -80.9 -302.1C-53.7 -308.8 -26.8 -316.6 0 -324.5L0 0Z" fill="#4e3971"></path><path d="M-270.4 0C-269.3 -23.9 -268.2 -47.8 -261.2 -70C-254.2 -92.2 -241.4 -112.8 -227.9 -131.6C-214.3 -150.4 -200.1 -167.4 -184.7 -184.7C-169.4 -202 -152.9 -219.5 -133.1 -230.6C-113.3 -241.6 -90.2 -246.2 -67.5 -251.7C-44.7 -257.3 -22.4 -263.9 0 -270.4L0 0Z" fill="#7d337d"></path><path d="M-216.3 0C-215.4 -19.1 -214.5 -38.2 -209 -56C-203.4 -73.8 -193.1 -90.2 -182.3 -105.3C-171.5 -120.3 -160.1 -134 -147.8 -147.8C-135.5 -161.6 -122.3 -175.6 -106.5 -184.5C-90.7 -193.3 -72.2 -196.9 -54 -201.4C-35.8 -205.8 -17.9 -211.1 0 -216.3L0 0Z" fill="#ae1f77"></path><path d="M-162.2 0C-161.6 -14.3 -160.9 -28.7 -156.7 -42C-152.5 -55.3 -144.8 -67.7 -136.7 -78.9C-128.6 -90.2 -120.1 -100.5 -110.8 -110.8C-101.6 -121.2 -91.8 -131.7 -79.9 -138.3C-68 -145 -54.1 -147.7 -40.5 -151C-26.8 -154.4 -13.4 -158.3 0 -162.2L0 0Z" fill="#da0060"></path><path d="M-108.2 0C-107.7 -9.6 -107.3 -19.1 -104.5 -28C-101.7 -36.9 -96.6 -45.1 -91.1 -52.6C-85.7 -60.1 -80 -67 -73.9 -73.9C-67.8 -80.8 -61.2 -87.8 -53.3 -92.2C-45.3 -96.6 -36.1 -98.5 -27 -100.7C-17.9 -102.9 -8.9 -105.5 0 -108.2L0 0Z" fill="#f7003a"></path><path d="M-54.1 0C-53.9 -4.8 -53.6 -9.6 -52.2 -14C-50.8 -18.4 -48.3 -22.6 -45.6 -26.3C-42.9 -30.1 -40 -33.5 -36.9 -36.9C-33.9 -40.4 -30.6 -43.9 -26.6 -46.1C-22.7 -48.3 -18 -49.2 -13.5 -50.3C-8.9 -51.5 -4.5 -52.8 0 -54.1L0 0Z" fill="#ff1f1f"></path></g><g transform="translate(0, 0)"><path d="M432.7 0C430.1 37.9 427.5 75.7 417.9 112C408.4 148.2 391.8 182.8 371.5 214.5C351.2 246.2 327.1 274.9 299.8 299.8C272.5 324.8 242.1 346 210 363.7C177.9 381.5 144.2 395.7 109 406.7C73.7 417.6 36.8 425.1 0 432.7L0 0Z" fill="#212b39"></path><path d="M378.6 0C376.3 33.1 374 66.3 365.7 98C357.3 129.7 342.9 160 325.1 187.7C307.3 215.4 286.2 240.5 262.3 262.3C238.5 284.2 211.8 302.7 183.8 318.3C155.7 333.8 126.2 346.3 95.3 355.8C64.5 365.4 32.2 372 0 378.6L0 0Z" fill="#2c3558"></path><path d="M324.5 0C322.6 28.4 320.6 56.8 313.4 84C306.3 111.2 293.9 137.1 278.6 160.9C263.4 184.6 245.3 206.1 224.9 224.9C204.4 243.6 181.6 259.5 157.5 272.8C133.4 286.1 108.2 296.8 81.7 305C55.3 313.2 27.6 318.8 0 324.5L0 0Z" fill="#4e3971"></path><path d="M270.4 0C268.8 23.7 267.2 47.3 261.2 70C255.2 92.6 244.9 114.3 232.2 134.1C219.5 153.8 204.4 171.8 187.4 187.4C170.3 203 151.3 216.2 131.3 227.3C111.2 238.4 90.1 247.3 68.1 254.2C46.1 261 23 265.7 0 270.4L0 0Z" fill="#7d337d"></path><path d="M216.3 0C215 18.9 213.7 37.9 209 56C204.2 74.1 195.9 91.4 185.8 107.2C175.6 123.1 163.5 137.4 149.9 149.9C136.3 162.4 121 173 105 181.9C89 190.7 72.1 197.9 54.5 203.3C36.8 208.8 18.4 212.6 0 216.3L0 0Z" fill="#ae1f77"></path><path d="M162.2 0C161.3 14.2 160.3 28.4 156.7 42C153.1 55.6 146.9 68.6 139.3 80.4C131.7 92.3 122.7 103.1 112.4 112.4C102.2 121.8 90.8 129.7 78.8 136.4C66.7 143.1 54.1 148.4 40.9 152.5C27.6 156.6 13.8 159.4 0 162.2L0 0Z" fill="#da0060"></path><path d="M108.2 0C107.5 9.5 106.9 18.9 104.5 28C102.1 37.1 98 45.7 92.9 53.6C87.8 61.5 81.8 68.7 75 75C68.1 81.2 60.5 86.5 52.5 90.9C44.5 95.4 36.1 98.9 27.2 101.7C18.4 104.4 9.2 106.3 0 108.2L0 0Z" fill="#f7003a"></path><path d="M54.1 0C53.8 4.7 53.4 9.5 52.2 14C51 18.5 49 22.9 46.4 26.8C43.9 30.8 40.9 34.4 37.5 37.5C34.1 40.6 30.3 43.2 26.3 45.5C22.2 47.7 18 49.5 13.6 50.8C9.2 52.2 4.6 53.1 0 54.1L0 0Z" fill="#ff1f1f"></path></g></svg>