<svg id="visual" viewBox="0 0 900 600" width="900" height="600" xmlns="http://www.w3.org/2000/svg" xmlns:xlink="http://www.w3.org/1999/xlink" version="1.1"><rect x="0" y="0" width="900" height="600" fill="#2863ff"></rect><defs><linearGradient id="grad1_0" x1="33.3%" y1="100%" x2="100%" y2="0%"><stop offset="20%" stop-color="#001220" stop-opacity="1"></stop><stop offset="80%" stop-color="#001220" stop-opacity="1"></stop></linearGradient></defs><defs><linearGradient id="grad1_1" x1="33.3%" y1="100%" x2="100%" y2="0%"><stop offset="20%" stop-color="#001220" stop-opacity="1"></stop><stop offset="80%" stop-color="#00203d" stop-opacity="1"></stop></linearGradient></defs><defs><linearGradient id="grad1_2" x1="33.3%" y1="100%" x2="100%" y2="0%"><stop offset="20%" stop-color="#002d5b" stop-opacity="1"></stop><stop offset="80%" stop-color="#00203d" stop-opacity="1"></stop></linearGradient></defs><defs><linearGradient id="grad1_3" x1="33.3%" y1="100%" x2="100%" y2="0%"><stop offset="20%" stop-color="#002d5b" stop-opacity="1"></stop><stop offset="80%" stop-color="#00397c" stop-opacity="1"></stop></linearGradient></defs><defs><linearGradient id="grad1_4" x1="33.3%" y1="100%" x2="100%" y2="0%"><stop offset="20%" stop-color="#00469d" stop-opacity="1"></stop><stop offset="80%" stop-color="#00397c" stop-opacity="1"></stop></linearGradient></defs><defs><linearGradient id="grad1_5" x1="33.3%" y1="100%" x2="100%" y2="0%"><stop offset="20%" stop-color="#00469d" stop-opacity="1"></stop><stop offset="80%" stop-color="#0051be" stop-opacity="1"></stop></linearGradient></defs><defs><linearGradient id="grad1_6" x1="33.3%" y1="100%" x2="100%" y2="0%"><stop offset="20%" stop-color="#005bdf" stop-opacity="1"></stop><stop offset="80%" stop-color="#0051be" stop-opacity="1"></stop></linearGradient></defs><defs><linearGradient id="grad1_7" x1="33.3%" y1="100%" x2="100%" y2="0%"><stop offset="20%" stop-color="#005bdf" stop-opacity="1"></stop><stop offset="80%" stop-color="#2863ff" stop-opacity="1"></stop></linearGradient></defs><defs><linearGradient id="grad2_0" x1="0%" y1="100%" x2="66.7%" y2="0%"><stop offset="20%" stop-color="#001220" stop-opacity="1"></stop><stop offset="80%" stop-color="#001220" stop-opacity="1"></stop></linearGradient></defs><defs><linearGradient id="grad2_1" x1="0%" y1="100%" x2="66.7%" y2="0%"><stop offset="20%" stop-color="#00203d" stop-opacity="1"></stop><stop offset="80%" stop-color="#001220" stop-opacity="1"></stop></linearGradient></defs><defs><linearGradient id="grad2_2" x1="0%" y1="100%" x2="66.7%" y2="0%"><stop offset="20%" stop-color="#00203d" stop-opacity="1"></stop><stop offset="80%" stop-color="#002d5b" stop-opacity="1"></stop></linearGradient></defs><defs><linearGradient id="grad2_3" x1="0%" y1="100%" x2="66.7%" y2="0%"><stop offset="20%" stop-color="#00397c" stop-opacity="1"></stop><stop offset="80%" stop-color="#002d5b" stop-opacity="1"></stop></linearGradient></defs><defs><linearGradient id="grad2_4" x1="0%" y1="100%" x2="66.7%" y2="0%"><stop offset="20%" stop-color="#00397c" stop-opacity="1"></stop><stop offset="80%" stop-color="#00469d" stop-opacity="1"></stop></linearGradient></defs><defs><linearGradient id="grad2_5" x1="0%" y1="100%" x2="66.7%" y2="0%"><stop offset="20%" stop-color="#0051be" stop-opacity="1"></stop><stop offset="80%" stop-color="#00469d" stop-opacity="1"></stop></linearGradient></defs><defs><linearGradient id="grad2_6" x1="0%" y1="100%" x2="66.7%" y2="0%"><stop offset="20%" stop-color="#0051be" stop-opacity="1"></stop><stop offset="80%" stop-color="#005bdf" stop-opacity="1"></stop></linearGradient></defs><defs><linearGradient id="grad2_7" x1="0%" y1="100%" x2="66.7%" y2="0%"><stop offset="20%" stop-color="#2863ff" stop-opacity="1"></stop><stop offset="80%" stop-color="#005bdf" stop-opacity="1"></stop></linearGradient></defs><g transform="translate(900, 600)"><path d="M-486.7 0C-483.4 -66.4 -480 -132.7 -449.7 -186.3C-419.4 -239.8 -362.1 -280.5 -309.7 -309.7C-257.4 -338.9 -210 -356.7 -159.2 -384.3C-108.4 -411.9 -54.2 -449.3 0 -486.7L0 0Z" fill="#005fef"></path><path d="M-425.9 0C-423 -58.1 -420 -116.2 -393.5 -163C-366.9 -209.8 -316.8 -245.4 -271 -271C-225.2 -296.6 -183.7 -312.1 -139.3 -336.3C-94.9 -360.4 -47.4 -393.2 0 -425.9L0 0Z" fill="#0056cf"></path><path d="M-365.1 0C-362.5 -49.8 -360 -99.6 -337.3 -139.7C-314.5 -179.8 -271.5 -210.4 -232.3 -232.3C-193 -254.2 -157.5 -267.6 -119.4 -288.3C-81.3 -308.9 -40.7 -337 0 -365.1L0 0Z" fill="#004bae"></path><path d="M-304.2 0C-302.1 -41.5 -300 -83 -281.1 -116.4C-262.1 -149.9 -226.3 -175.3 -193.6 -193.6C-160.9 -211.8 -131.2 -223 -99.5 -240.2C-67.8 -257.5 -33.9 -280.8 0 -304.2L0 0Z" fill="#00408c"></path><path d="M-243.4 0C-241.7 -33.2 -240 -66.4 -224.8 -93.1C-209.7 -119.9 -181 -140.2 -154.9 -154.9C-128.7 -169.5 -105 -178.4 -79.6 -192.2C-54.2 -206 -27.1 -224.7 0 -243.4L0 0Z" fill="#00336b"></path><path d="M-182.5 0C-181.3 -24.9 -180 -49.8 -168.6 -69.9C-157.3 -89.9 -135.8 -105.2 -116.1 -116.1C-96.5 -127.1 -78.7 -133.8 -59.7 -144.1C-40.7 -154.5 -20.3 -168.5 0 -182.5L0 0Z" fill="#00264c"></path><path d="M-121.7 0C-120.8 -16.6 -120 -33.2 -112.4 -46.6C-104.8 -59.9 -90.5 -70.1 -77.4 -77.4C-64.3 -84.7 -52.5 -89.2 -39.8 -96.1C-27.1 -103 -13.6 -112.3 0 -121.7L0 0Z" fill="#00192e"></path><path d="M-60.8 0C-60.4 -8.3 -60 -16.6 -56.2 -23.3C-52.4 -30 -45.3 -35.1 -38.7 -38.7C-32.2 -42.4 -26.2 -44.6 -19.9 -48C-13.6 -51.5 -6.8 -56.2 0 -60.8L0 0Z" fill="#001220"></path></g><g transform="translate(0, 0)"><path d="M486.7 0C483.9 66.5 481.1 133 449.7 186.3C418.3 239.6 358.4 279.7 304.1 304.1C249.7 328.4 200.9 337.1 151.2 364.9C101.4 392.8 50.7 439.8 0 486.7L0 0Z" fill="#005fef"></path><path d="M425.9 0C423.4 58.2 420.9 116.4 393.5 163C366 209.6 313.6 244.7 266 266C218.5 287.4 175.8 295 132.3 319.3C88.7 343.7 44.4 384.8 0 425.9L0 0Z" fill="#0056cf"></path><path d="M365.1 0C362.9 49.9 360.8 99.7 337.3 139.7C313.7 179.7 268.8 209.8 228 228C187.3 246.3 150.7 252.8 113.4 273.7C76.1 294.6 38 329.8 0 365.1L0 0Z" fill="#004bae"></path><path d="M304.2 0C302.4 41.6 300.7 83.1 281.1 116.4C261.5 149.7 224 174.8 190 190C156.1 205.3 125.6 210.7 94.5 228.1C63.4 245.5 31.7 274.8 0 304.2L0 0Z" fill="#00408c"></path><path d="M243.4 0C242 33.2 240.5 66.5 224.8 93.1C209.2 119.8 179.2 139.8 152 152C124.9 164.2 100.5 168.6 75.6 182.5C50.7 196.4 25.4 219.9 0 243.4L0 0Z" fill="#00336b"></path><path d="M182.5 0C181.5 24.9 180.4 49.9 168.6 69.9C156.9 89.8 134.4 104.9 114 114C93.6 123.2 75.3 126.4 56.7 136.8C38 147.3 19 164.9 0 182.5L0 0Z" fill="#00264c"></path><path d="M121.7 0C121 16.6 120.3 33.2 112.4 46.6C104.6 59.9 89.6 69.9 76 76C62.4 82.1 50.2 84.3 37.8 91.2C25.4 98.2 12.7 109.9 0 121.7L0 0Z" fill="#00192e"></path><path d="M60.8 0C60.5 8.3 60.1 16.6 56.2 23.3C52.3 29.9 44.8 35 38 38C31.2 41.1 25.1 42.1 18.9 45.6C12.7 49.1 6.3 55 0 60.8L0 0Z" fill="#001220"></path></g></svg>