<svg id="visual" viewBox="0 0 900 600" width="900" height="600" xmlns="http://www.w3.org/2000/svg" xmlns:xlink="http://www.w3.org/1999/xlink" version="1.1"><rect x="0" y="0" width="900" height="600" fill="#f8f8f8"></rect><defs><linearGradient id="grad1_0" x1="33.3%" y1="0%" x2="100%" y2="100%"><stop offset="20%" stop-color="#fff664" stop-opacity="1"></stop><stop offset="80%" stop-color="#fff664" stop-opacity="1"></stop></linearGradient></defs><defs><linearGradient id="grad1_1" x1="33.3%" y1="0%" x2="100%" y2="100%"><stop offset="20%" stop-color="#fff664" stop-opacity="1"></stop><stop offset="80%" stop-color="#fff68c" stop-opacity="1"></stop></linearGradient></defs><defs><linearGradient id="grad1_2" x1="33.3%" y1="0%" x2="100%" y2="100%"><stop offset="20%" stop-color="#fff7b1" stop-opacity="1"></stop><stop offset="80%" stop-color="#fff68c" stop-opacity="1"></stop></linearGradient></defs><defs><linearGradient id="grad1_3" x1="33.3%" y1="0%" x2="100%" y2="100%"><stop offset="20%" stop-color="#fff7b1" stop-opacity="1"></stop><stop offset="80%" stop-color="#fdf7d5" stop-opacity="1"></stop></linearGradient></defs><defs><linearGradient id="grad1_4" x1="33.3%" y1="0%" x2="100%" y2="100%"><stop offset="20%" stop-color="#f8f8f8" stop-opacity="1"></stop><stop offset="80%" stop-color="#fdf7d5" stop-opacity="1"></stop></linearGradient></defs><defs><linearGradient id="grad2_0" x1="0%" y1="0%" x2="66.7%" y2="100%"><stop offset="20%" stop-color="#fff664" stop-opacity="1"></stop><stop offset="80%" stop-color="#fff664" stop-opacity="1"></stop></linearGradient></defs><defs><linearGradient id="grad2_1" x1="0%" y1="0%" x2="66.7%" y2="100%"><stop offset="20%" stop-color="#fff68c" stop-opacity="1"></stop><stop offset="80%" stop-color="#fff664" stop-opacity="1"></stop></linearGradient></defs><defs><linearGradient id="grad2_2" x1="0%" y1="0%" x2="66.7%" y2="100%"><stop offset="20%" stop-color="#fff68c" stop-opacity="1"></stop><stop offset="80%" stop-color="#fff7b1" stop-opacity="1"></stop></linearGradient></defs><defs><linearGradient id="grad2_3" x1="0%" y1="0%" x2="66.7%" y2="100%"><stop offset="20%" stop-color="#fdf7d5" stop-opacity="1"></stop><stop offset="80%" stop-color="#fff7b1" stop-opacity="1"></stop></linearGradient></defs><defs><linearGradient id="grad2_4" x1="0%" y1="0%" x2="66.7%" y2="100%"><stop offset="20%" stop-color="#fdf7d5" stop-opacity="1"></stop><stop offset="80%" stop-color="#f8f8f8" stop-opacity="1"></stop></linearGradient></defs><g transform="translate(900, 0)"><path d="M0 405.6C-32.2 387.7 -64.4 369.7 -96 358.4C-127.6 347 -158.5 342.3 -192 332.6C-225.5 322.8 -261.5 308.2 -282.1 282.1C-302.8 256.1 -308.1 218.7 -326.5 188.5C-344.9 158.3 -376.4 135.2 -391.8 105C-407.2 74.8 -406.4 37.4 -405.6 0L0 0Z" fill="#fbf8e6"></path><path d="M0 324.5C-25.8 310.1 -51.6 295.8 -76.8 286.7C-102.1 277.6 -126.8 273.8 -153.6 266C-180.4 258.3 -209.2 246.5 -225.7 225.7C-242.2 204.9 -246.5 175 -261.2 150.8C-275.9 126.6 -301.1 108.2 -313.4 84C-325.7 59.8 -325.1 29.9 -324.5 0L0 0Z" fill="#fff7c3"></path><path d="M0 243.4C-19.3 232.6 -38.7 221.8 -57.6 215C-76.6 208.2 -95.1 205.4 -115.2 199.5C-135.3 193.7 -156.9 184.9 -169.3 169.3C-181.7 153.7 -184.8 131.2 -195.9 113.1C-206.9 95 -225.9 81.1 -235.1 63C-244.3 44.9 -243.8 22.4 -243.4 0L0 0Z" fill="#fff69f"></path><path d="M0 162.2C-12.9 155.1 -25.8 147.9 -38.4 143.3C-51 138.8 -63.4 136.9 -76.8 133C-90.2 129.1 -104.6 123.3 -112.9 112.9C-121.1 102.4 -123.2 87.5 -130.6 75.4C-138 63.3 -150.6 54.1 -156.7 42C-162.9 29.9 -162.6 15 -162.2 0L0 0Z" fill="#fff679"></path><path d="M0 81.1C-6.4 77.5 -12.9 73.9 -19.2 71.7C-25.5 69.4 -31.7 68.5 -38.4 66.5C-45.1 64.6 -52.3 61.6 -56.4 56.4C-60.6 51.2 -61.6 43.7 -65.3 37.7C-69 31.7 -75.3 27 -78.4 21C-81.4 15 -81.3 7.5 -81.1 0L0 0Z" fill="#fff664"></path></g><g transform="translate(0, 600)"><path d="M0 -405.6C35.6 -404 71.1 -402.4 105 -391.8C138.8 -381.2 170.9 -361.6 194.5 -336.9C218.1 -312.1 233.1 -282.2 260.2 -260.2C287.3 -238.2 326.6 -224.2 341.2 -197C355.9 -169.8 345.9 -129.5 352.6 -94.5C359.2 -59.4 382.4 -29.7 405.6 0L0 0Z" fill="#fbf8e6"></path><path d="M0 -324.5C28.5 -323.2 56.9 -321.9 84 -313.4C111.1 -305 136.7 -289.3 155.6 -269.5C174.5 -249.7 186.5 -225.8 208.2 -208.2C229.9 -190.6 261.3 -179.3 273 -157.6C284.7 -135.9 276.7 -103.6 282.1 -75.6C287.4 -47.6 305.9 -23.8 324.5 0L0 0Z" fill="#fff7c3"></path><path d="M0 -243.4C21.3 -242.4 42.7 -241.4 63 -235.1C83.3 -228.7 102.6 -217 116.7 -202.1C130.8 -187.3 139.9 -169.3 156.1 -156.1C172.4 -142.9 195.9 -134.5 204.7 -118.2C213.5 -101.9 207.6 -77.7 211.5 -56.7C215.5 -35.7 229.4 -17.8 243.4 0L0 0Z" fill="#fff69f"></path><path d="M0 -162.2C14.2 -161.6 28.5 -161 42 -156.7C55.5 -152.5 68.4 -144.7 77.8 -134.8C87.2 -124.9 93.2 -112.9 104.1 -104.1C114.9 -95.3 130.6 -89.7 136.5 -78.8C142.3 -67.9 138.4 -51.8 141 -37.8C143.7 -23.8 153 -11.9 162.2 0L0 0Z" fill="#fff679"></path><path d="M0 -81.1C7.1 -80.8 14.2 -80.5 21 -78.4C27.8 -76.2 34.2 -72.3 38.9 -67.4C43.6 -62.4 46.6 -56.4 52 -52C57.5 -47.6 65.3 -44.8 68.2 -39.4C71.2 -34 69.2 -25.9 70.5 -18.9C71.8 -11.9 76.5 -5.9 81.1 0L0 0Z" fill="#fff664"></path></g></svg>