<svg id="visual" viewBox="0 0 900 450" width="900" height="450" xmlns="http://www.w3.org/2000/svg" xmlns:xlink="http://www.w3.org/1999/xlink" version="1.1"><rect x="0" y="0" width="900" height="450" fill="#ddcc00"></rect><defs><linearGradient id="grad1_0" x1="50%" y1="100%" x2="100%" y2="0%"><stop offset="10%" stop-color="#141414" stop-opacity="1"></stop><stop offset="90%" stop-color="#141414" stop-opacity="1"></stop></linearGradient></defs><defs><linearGradient id="grad1_1" x1="50%" y1="100%" x2="100%" y2="0%"><stop offset="10%" stop-color="#141414" stop-opacity="1"></stop><stop offset="90%" stop-color="#322e1a" stop-opacity="1"></stop></linearGradient></defs><defs><linearGradient id="grad1_2" x1="50%" y1="100%" x2="100%" y2="0%"><stop offset="10%" stop-color="#514a1d" stop-opacity="1"></stop><stop offset="90%" stop-color="#322e1a" stop-opacity="1"></stop></linearGradient></defs><defs><linearGradient id="grad1_3" x1="50%" y1="100%" x2="100%" y2="0%"><stop offset="10%" stop-color="#514a1d" stop-opacity="1"></stop><stop offset="90%" stop-color="#72681f" stop-opacity="1"></stop></linearGradient></defs><defs><linearGradient id="grad1_4" x1="50%" y1="100%" x2="100%" y2="0%"><stop offset="10%" stop-color="#94881d" stop-opacity="1"></stop><stop offset="90%" stop-color="#72681f" stop-opacity="1"></stop></linearGradient></defs><defs><linearGradient id="grad1_5" x1="50%" y1="100%" x2="100%" y2="0%"><stop offset="10%" stop-color="#94881d" stop-opacity="1"></stop><stop offset="90%" stop-color="#b8a916" stop-opacity="1"></stop></linearGradient></defs><defs><linearGradient id="grad1_6" x1="50%" y1="100%" x2="100%" y2="0%"><stop offset="10%" stop-color="#ddcc00" stop-opacity="1"></stop><stop offset="90%" stop-color="#b8a916" stop-opacity="1"></stop></linearGradient></defs><defs><linearGradient id="grad2_0" x1="0%" y1="100%" x2="50%" y2="0%"><stop offset="10%" stop-color="#141414" stop-opacity="1"></stop><stop offset="90%" stop-color="#141414" stop-opacity="1"></stop></linearGradient></defs><defs><linearGradient id="grad2_1" x1="0%" y1="100%" x2="50%" y2="0%"><stop offset="10%" stop-color="#322e1a" stop-opacity="1"></stop><stop offset="90%" stop-color="#141414" stop-opacity="1"></stop></linearGradient></defs><defs><linearGradient id="grad2_2" x1="0%" y1="100%" x2="50%" y2="0%"><stop offset="10%" stop-color="#322e1a" stop-opacity="1"></stop><stop offset="90%" stop-color="#514a1d" stop-opacity="1"></stop></linearGradient></defs><defs><linearGradient id="grad2_3" x1="0%" y1="100%" x2="50%" y2="0%"><stop offset="10%" stop-color="#72681f" stop-opacity="1"></stop><stop offset="90%" stop-color="#514a1d" stop-opacity="1"></stop></linearGradient></defs><defs><linearGradient id="grad2_4" x1="0%" y1="100%" x2="50%" y2="0%"><stop offset="10%" stop-color="#72681f" stop-opacity="1"></stop><stop offset="90%" stop-color="#94881d" stop-opacity="1"></stop></linearGradient></defs><defs><linearGradient id="grad2_5" x1="0%" y1="100%" x2="50%" y2="0%"><stop offset="10%" stop-color="#b8a916" stop-opacity="1"></stop><stop offset="90%" stop-color="#94881d" stop-opacity="1"></stop></linearGradient></defs><defs><linearGradient id="grad2_6" x1="0%" y1="100%" x2="50%" y2="0%"><stop offset="10%" stop-color="#b8a916" stop-opacity="1"></stop><stop offset="90%" stop-color="#ddcc00" stop-opacity="1"></stop></linearGradient></defs><g transform="translate(900, 450)"><path d="M-405 0C-382.6 -47.5 -360.2 -95 -340 -140.8C-319.7 -186.6 -301.6 -230.8 -272.2 -272.2C-242.9 -313.7 -202.2 -352.5 -155 -374.2C-107.7 -395.9 -53.9 -400.4 0 -405L0 0Z" fill="#cabb0e"></path><path d="M-347.1 0C-328 -40.7 -308.8 -81.4 -291.4 -120.7C-274.1 -160 -258.5 -197.8 -233.3 -233.3C-208.2 -268.9 -173.3 -302.1 -132.8 -320.7C-92.3 -339.3 -46.2 -343.2 0 -347.1L0 0Z" fill="#a6991a"></path><path d="M-289.3 0C-273.3 -33.9 -257.3 -67.9 -242.8 -100.6C-228.4 -133.3 -215.4 -164.8 -194.5 -194.5C-173.5 -224.1 -144.5 -251.8 -110.7 -267.3C-77 -282.8 -38.5 -286 0 -289.3L0 0Z" fill="#83781e"></path><path d="M-231.4 0C-218.6 -27.1 -205.9 -54.3 -194.3 -80.5C-182.7 -106.7 -172.3 -131.9 -155.6 -155.6C-138.8 -179.3 -115.6 -201.4 -88.6 -213.8C-61.6 -226.2 -30.8 -228.8 0 -231.4L0 0Z" fill="#61591e"></path><path d="M-173.6 0C-164 -20.4 -154.4 -40.7 -145.7 -60.4C-137 -80 -129.3 -98.9 -116.7 -116.7C-104.1 -134.4 -86.7 -151.1 -66.4 -160.4C-46.2 -169.7 -23.1 -171.6 0 -173.6L0 0Z" fill="#413c1c"></path><path d="M-115.7 0C-109.3 -13.6 -102.9 -27.1 -97.1 -40.2C-91.4 -53.3 -86.2 -65.9 -77.8 -77.8C-69.4 -89.6 -57.8 -100.7 -44.3 -106.9C-30.8 -113.1 -15.4 -114.4 0 -115.7L0 0Z" fill="#232117"></path><path d="M-57.9 0C-54.7 -6.8 -51.5 -13.6 -48.6 -20.1C-45.7 -26.7 -43.1 -33 -38.9 -38.9C-34.7 -44.8 -28.9 -50.4 -22.1 -53.5C-15.4 -56.6 -7.7 -57.2 0 -57.9L0 0Z" fill="#141414"></path></g><g transform="translate(0, 0)"><path d="M405 0C385.5 47.5 366.1 95 349.2 144.7C332.4 194.3 318.2 246.1 286.4 286.4C254.6 326.7 205.3 355.4 154.6 373.2C103.9 391.1 52 398 0 405L0 0Z" fill="#cabb0e"></path><path d="M347.1 0C330.5 40.7 313.8 81.4 299.3 124C284.9 166.5 272.7 210.9 245.5 245.5C218.2 280 175.9 304.6 132.5 319.9C89.1 335.2 44.5 341.2 0 347.1L0 0Z" fill="#a6991a"></path><path d="M289.3 0C275.4 33.9 261.5 67.9 249.4 103.3C237.4 138.8 227.3 175.8 204.6 204.6C181.9 233.3 146.6 253.9 110.4 266.6C74.2 279.4 37.1 284.3 0 289.3L0 0Z" fill="#83781e"></path><path d="M231.4 0C220.3 27.1 209.2 54.3 199.6 82.7C189.9 111 181.8 140.6 163.6 163.6C145.5 186.7 117.3 203.1 88.3 213.3C59.4 223.5 29.7 227.5 0 231.4L0 0Z" fill="#61591e"></path><path d="M173.6 0C165.2 20.4 156.9 40.7 149.7 62C142.4 83.3 136.4 105.5 122.7 122.7C109.1 140 88 152.3 66.3 160C44.5 167.6 22.3 170.6 0 173.6L0 0Z" fill="#413c1c"></path><path d="M115.7 0C110.2 13.6 104.6 27.1 99.8 41.3C95 55.5 90.9 70.3 81.8 81.8C72.7 93.3 58.6 101.5 44.2 106.6C29.7 111.7 14.8 113.7 0 115.7L0 0Z" fill="#232117"></path><path d="M57.9 0C55.1 6.8 52.3 13.6 49.9 20.7C47.5 27.8 45.5 35.2 40.9 40.9C36.4 46.7 29.3 50.8 22.1 53.3C14.8 55.9 7.4 56.9 0 57.9L0 0Z" fill="#141414"></path></g></svg>