<?xml version="1.0" encoding="UTF-8"?>
<!DOCTYPE svg PUBLIC "-//W3C//DTD SVG 1.1//EN" "http://www.w3.org/Graphics/SVG/1.1/DTD/svg11.dtd">
<!-- Creator: CorelDRAW -->
<svg xmlns="http://www.w3.org/2000/svg" xml:space="preserve" width="7.9771mm" height="7.975mm" version="1.1" style="shape-rendering:geometricPrecision; text-rendering:geometricPrecision; image-rendering:optimizeQuality; fill-rule:evenodd; clip-rule:evenodd"
viewBox="0 0 56.94 56.92"
 xmlns:xlink="http://www.w3.org/1999/xlink"
 xmlns:xodm="http://www.corel.com/coreldraw/odm/2003">
 <defs>
  <style type="text/css">
   <![CDATA[
    .fil0 {fill:#007D17}
   ]]>
  </style>
 </defs>
 <g id="Layer_x0020_1">
  <metadata id="CorelCorpID_0Corel-Layer"/>
  <path class="fil0" d="M24.86 31.64c1.28,-0.38 11.4,-11.95 13.13,-12.65 1.97,-0.79 3.81,0.52 3.81,2.37 0,1.64 -1.93,3.16 -2.69,3.92 -1.71,1.7 -11.97,12.25 -13.07,12.76 -2.04,0.96 -3.43,-0.88 -4.24,-1.69 -1.08,-1.08 -5.9,-5.67 -6.37,-6.64 -0.85,-1.75 0.18,-3.69 2.12,-3.81 2.71,-0.17 5.43,4.68 7.31,5.74zm2.63 -31.57c-7.21,0.93 -9.33,1.16 -15.82,5.42 -0.89,0.58 -1.16,0.94 -1.93,1.63 -1.62,1.45 -1.93,1.6 -3.52,3.61 -6.89,8.66 -8.14,20.12 -3.29,30.26 2.87,6 8.35,11.32 14.68,13.82 3.15,1.24 8.21,2.36 12,2.07 9.29,-0.69 14.88,-4.02 19.46,-8.82 8.12,-8.51 10.29,-21.58 4.97,-32.01 -3.48,-6.82 -7.79,-10.65 -14.66,-13.84 -2.57,-1.19 -8.72,-2.56 -11.89,-2.15z"/>
 </g>
</svg>
