<?xml version="1.0" encoding="UTF-8"?>
<!DOCTYPE svg PUBLIC "-//W3C//DTD SVG 1.1//EN" "http://www.w3.org/Graphics/SVG/1.1/DTD/svg11.dtd">
<!-- Creator: CorelDRAW -->
<svg xmlns="http://www.w3.org/2000/svg" xml:space="preserve" width="7.977mm" height="7.9761mm" version="1.1" style="shape-rendering:geometricPrecision; text-rendering:geometricPrecision; image-rendering:optimizeQuality; fill-rule:evenodd; clip-rule:evenodd"
viewBox="0 0 56.98 56.97"
 xmlns:xlink="http://www.w3.org/1999/xlink"
 xmlns:xodm="http://www.corel.com/coreldraw/odm/2003">
 <defs>
  <style type="text/css">
   <![CDATA[
    .fil0 {fill:#8A0000}
   ]]>
  </style>
 </defs>
 <g id="Layer_x0020_1">
  <metadata id="CorelCorpID_0Corel-Layer"/>
  <path class="fil0" d="M28.44 24.5c0.65,-0.23 3.31,-3.09 3.9,-3.71 0.46,-0.47 1.36,-1.53 2.11,-1.82 2.34,-0.92 6.28,1.35 1.84,5.59 -0.97,0.92 -3.18,2.95 -3.85,3.93 1.39,2.47 8.11,5.7 5.05,9.04 -0.63,0.69 -1.88,1.03 -2.97,0.58 -1.35,-0.57 -4.89,-5.24 -6.08,-5.63 -2.42,1.46 -6.17,8.31 -9.02,5.02 -2.2,-2.54 0.93,-4.77 3.21,-6.98 0.65,-0.63 1.53,-1.25 1.88,-2.04 -1.3,-2.51 -7.89,-5.59 -5.18,-8.92 0.59,-0.72 1.85,-1.02 2.97,-0.66 1.7,0.55 4.69,4.78 6.13,5.59zm28.44 5.59c0.77,-8.75 -3.4,-16.46 -7.41,-20.86 -1.91,-2.09 -5.06,-4.72 -8.13,-6.12 -4.2,-1.92 -6.08,-2.47 -11.26,-3.01 -7.61,-0.81 -17.79,3.25 -22.61,9.21 -1.82,2.25 -2.78,2.91 -4.38,6.31 -4.92,10.39 -3.97,21.21 2.81,30.24 0.53,0.71 1.08,1.2 1.65,1.91 4.42,5.47 12.21,8.49 19.33,9.12 7.48,0.66 15.64,-2.54 20.88,-7.47 4.76,-4.48 8.31,-10.06 9.12,-19.32z"/>
 </g>
</svg>
